Coordinates
version=1
nRows=17
nColumns=40
inDegrees=yes

Units are S.I. units (second, meters, Newtons, ...)
If the header above contains a line with 'inDegrees', this indicates whether rotational values are in degrees (yes) or radians (no).

endheader
time	pelvis_tilt	pelvis_list	pelvis_rotation	pelvis_tx	pelvis_ty	pelvis_tz	hip_flexion_r	hip_adduction_r	hip_rotation_r	knee_angle_r	ankle_angle_r	subtalar_angle_r	mtp_angle_r	hip_flexion_l	hip_adduction_l	hip_rotation_l	knee_angle_l	ankle_angle_l	subtalar_angle_l	mtp_angle_l	lumbar_extension	lumbar_bending	lumbar_rotation	sh_tx_r	sh_ty_r	sh_tz_r	sh_plane_elev_r	sh_elev_r	sh_axial_rot_r	elbow_flex_r	pro_sup_r	sh_tx_l	sh_ty_l	sh_tz_l	sh_plane_elev_l	sh_elev_l	sh_axial_rot_l	elbow_flex_l	pro_sup_l
      8.01666670	    -23.96257768	     -6.70028081	      8.84142222	      0.58508534	      0.94848972	      0.49050555	     38.30004600	      2.85549487	     -3.34594745	     34.40182311	      2.31425947	    -25.68692779	      0.00000000	      3.46689729	     -9.43917731	     -8.19133057	     15.20505747	    -14.41840531	    -12.41160917	      0.00000000	     -2.09723390	      7.25996134	     -8.12131972	      0.00952112	     -0.02000000	     -0.00669380	     -6.04007112	      5.64982797	     -0.76864625	     37.30313845	    103.88986021	      0.00422304	     -0.01690662	     -0.00721938	      8.51846954	      4.93650990	      1.34522387	     28.44931368	    101.09872605
      8.03333330	    -23.84873261	     -6.50008866	      9.07966780	      0.59582591	      0.95213347	      0.49252976	     36.49690863	      2.92430485	     -3.56624386	     32.32791639	      2.39999754	    -25.35113274	      0.00000000	      4.63488776	     -9.89892106	     -7.54335543	     17.68826782	    -15.40720670	    -13.07212402	      0.00000000	     -1.97682929	      7.11719755	     -7.56334624	      0.00955588	     -0.02000000	     -0.00455459	     -5.67343090	      5.53242364	     -0.59053792	     37.96361152	    103.90080247	      0.00563699	     -0.01760676	     -0.00871749	      8.54446019	      4.75209933	      1.19535991	     28.38779036	    101.00096731
      8.05000000	    -23.50199601	     -6.29388513	      9.33345247	      0.60860978	      0.95637283	      0.49540734	     34.22574929	      2.96312751	     -4.11591254	     29.96456214	      2.65869516	    -24.10506953	      0.00000000	      5.51435376	    -10.24420221	     -6.58982354	     20.10310805	    -16.92480217	    -15.51733316	      0.00000000	     -2.08768416	      7.26366867	     -6.81397508	      0.00922338	     -0.02000000	     -0.00561529	     -5.28148425	      5.98614085	     -0.60113069	     38.86197419	    103.89695148	      0.00821230	     -0.01855018	     -0.00829963	      8.72598726	      4.27416454	      1.03437454	     28.36027636	    100.81814635
      8.06666670	    -23.26605035	     -6.10970897	      9.35249013	      0.61974537	      0.95998948	      0.49965133	     31.99325266	      3.15819661	     -4.74355645	     27.46469286	      3.14214233	    -22.43946021	      0.00000000	      6.36953125	    -10.65147755	     -6.31386565	     22.47803758	    -17.97934455	    -18.14946634	      0.00000000	     -2.14278098	      7.20046491	     -5.95002275	      0.00855660	     -0.02000000	     -0.00433529	     -4.72834004	      5.98448516	     -0.61804763	     39.79745322	    103.90558743	      0.00998279	     -0.01895001	     -0.00875745	      8.84933649	      4.01286134	      0.87641118	     28.39528877	    100.64467354
      8.08333330	    -22.95927355	     -5.61150574	      9.04841826	      0.62640547	      0.96281868	      0.50451775	     29.97899166	      3.24893693	     -4.98936768	     25.41270464	      4.06609955	    -20.57748969	      0.00000000	      7.27970509	    -10.68637880	     -6.06505926	     25.46471086	    -18.48994656	    -21.97070269	      0.00000000	     -2.36774848	      6.81218989	     -4.96878302	      0.00871929	     -0.02000000	     -0.00385776	     -4.02838017	      5.95826913	     -0.79984473	     41.02165827	    103.90911266	      0.01178687	     -0.01954266	     -0.00780905	      9.00221683	      3.74652383	      0.74439035	     28.75700276	    100.45954862
      8.10000000	    -22.65756651	     -5.01049241	      8.69755912	      0.63066669	      0.96328215	      0.50883627	     28.40561294	      3.26295806	     -4.85588632	     23.98139770	      5.23379975	    -19.30170873	      0.00000000	      8.73384747	    -10.57476883	     -5.61402486	     29.76836104	    -18.22114764	    -26.25849154	      0.00000000	     -2.68643057	      6.16231862	     -3.89500772	      0.00908879	     -0.02000000	     -0.00326479	     -3.18348190	      5.89102429	     -1.10277945	     42.42372044	    103.91252765	      0.01442084	     -0.01923953	     -0.00714164	      9.10055975	      3.62686635	      0.61394662	     29.04722217	    100.29056968
      8.11666670	    -22.43114746	     -4.49153866	      8.59903300	      0.63649472	      0.96143024	      0.51180710	     27.23105962	      3.19816419	     -4.56606337	     23.13258412	      6.41913835	    -18.74748746	      0.00000000	     10.75270087	    -10.45997138	     -4.92506914	     35.28037438	    -17.11920399	    -30.33591063	      0.00000000	     -2.79542508	      5.51874109	     -2.97476892	      0.00974298	     -0.02000000	     -0.00253456	     -2.32485938	      5.84679711	     -1.49977882	     43.76863660	    103.90312050	      0.01727244	     -0.01851427	     -0.00662127	      9.23194650	      3.56396156	      0.55729190	     29.25553774	    100.14509024
      8.13333330	    -22.17178210	     -4.19771575	      8.84953586	      0.64532650	      0.96025160	      0.51374061	     26.04143500	      3.19055207	     -4.35928405	     22.42946590	      7.30958450	    -18.76167468	      0.00000000	     12.81246478	    -10.43732359	     -4.05624921	     41.12363101	    -15.00277708	    -33.26168250	      0.00000000	     -2.77653603	      4.95159909	     -2.31503309	      0.01023534	     -0.02000000	     -0.00030136	     -1.71747715	      5.63617130	     -1.56693262	     44.79487332	    103.91074446	      0.01988911	     -0.01673478	     -0.00752686	      9.22542836	      3.64905793	      0.47022955	     29.24249736	    100.06206357
      8.15000000	    -22.04660928	     -3.88397556	      9.00355245	      0.65557931	      0.96141891	      0.51589642	     24.82047388	      3.12898340	     -4.21220501	     21.58752404	      7.87182809	    -18.72311707	      0.00000000	     14.42242952	    -10.18168824	     -3.40492811	     46.15230647	    -11.79850938	    -35.00000000	      0.00000000	     -2.57970033	      4.47396001	     -1.92300295	      0.01052795	     -0.02000000	     -0.00000187	     -1.35457426	      5.64199672	     -1.60917733	     45.65359248	    103.91537226	      0.02077032	     -0.01543264	     -0.00707987	      9.23393820	      3.59297731	      0.42452447	     29.42991410	    100.00961358
      8.16666670	    -22.14651475	     -3.73829601	      8.91387023	      0.66399371	      0.96423222	      0.51865396	     23.73031458	      3.26052584	     -4.12526694	     20.42204676	      7.84877962	    -18.18378055	      0.00000000	     15.90703328	     -9.83004389	     -2.73197878	     50.36538881	     -7.77938681	    -35.00000000	      0.00000000	     -2.43429564	      4.36706746	     -1.39387201	      0.00893750	     -0.01798093	     -0.00003806	     -0.86514443	      5.86921544	     -1.74298725	     47.12876876	    103.91300267	      0.02086351	     -0.01380421	     -0.00762850	      9.21925961	      3.56977051	      0.33777938	     29.95856113	     99.92916801
      8.18333330	    -22.06752983	     -3.14692529	      8.48497859	      0.66891346	      0.96759223	      0.52228597	     22.43245315	      3.11764359	     -3.67041102	     19.04901586	      7.52464021	    -17.64249576	      0.00000000	     16.90945631	     -8.86575384	     -2.31491241	     53.72515481	     -4.05620810	    -35.00000000	      0.00000000	     -2.25052860	      3.77065970	     -1.00947948	      0.01090362	     -0.01586918	      0.00000000	     -0.50907604	      5.80577024	     -1.70246816	     47.93991049	    103.92795730	      0.02178307	     -0.01224004	     -0.00663044	      9.19984440	      3.43992321	      0.28466585	     30.15082030	     99.89781993
      8.20000000	    -21.88247413	     -2.66401229	      8.05969017	      0.66999940	      0.96801989	      0.52576879	     21.45403377	      3.09131722	     -3.15766433	     17.98099620	      7.24444227	    -17.17963932	      0.00000000	     18.33260265	     -7.95796509	     -1.81009494	     57.30326105	     -1.08025217	    -35.00000000	      0.00000000	     -2.41006526	      3.16415971	     -0.58941731	      0.01492561	     -0.01413279	      0.00000000	     -0.15832619	      5.91283816	     -1.65852655	     48.82396131	    103.94803257	      0.02510183	     -0.01003055	     -0.00680164	      9.14962880	      3.42226882	      0.21860104	     30.27296104	     99.86991825
      8.21666670	    -21.68206557	     -2.20569048	      7.94852298	      0.67136197	      0.96842268	      0.52758736	     20.76502134	      2.94014915	     -2.78998804	     17.28645568	      6.94300839	    -16.90102878	      0.00000000	     19.96815901	     -6.99131683	     -1.29184692	     60.61691219	      1.88886616	    -35.00000000	      0.00000000	     -2.63226672	      2.62817806	     -0.16176008	      0.01838918	     -0.01235011	      0.00000000	      0.20877600	      6.10686746	     -1.60047044	     49.72264816	    103.97452080	      0.02840394	     -0.00797515	     -0.00720020	      9.10967974	      3.46029283	      0.17118849	     30.44865454	     99.84364793
      8.23333330	    -21.77415429	     -1.94820047	      8.21436973	      0.67558162	      0.96952986	      0.52728652	     20.47541792	      2.67988820	     -3.13733278	     16.80974004	      6.30536060	    -17.07130656	      0.00000000	     21.80025439	     -6.09166276	     -0.84072780	     63.11478617	      4.60003707	    -35.00000000	      0.00000000	     -2.54715333	      2.48132265	      0.42747416	      0.01724227	     -0.01128669	     -0.00067563	      0.84399956	      6.79059892	     -1.62368278	     51.32901233	    104.03009774	      0.03041796	     -0.00763233	     -0.01000000	      9.11837302	      3.76651544	      0.17576151	     31.24252319	     99.78891196
      8.25000000	    -21.61137112	     -1.53908699	      8.34586798	      0.68275496	      0.97236353	      0.52704893	     19.60895513	      2.36526103	     -2.95074182	     16.04943408	      5.52318594	    -16.84317369	      0.00000000	     22.72002295	     -4.92523394	     -0.37018981	     64.33611717	      5.93239916	    -35.00000000	      0.00000000	     -2.39167883	      2.33840756	      0.54370234	      0.01929754	     -0.00990276	     -0.00100583	      1.07950037	      7.06620613	     -1.62615816	     51.63619945	    104.06808977	      0.03171351	     -0.00893661	     -0.00978464	      9.20045082	      3.67541834	      0.22267942	     31.73036269	     99.76003695
      8.26666670	    -21.10701017	     -1.30513382	      8.46547631	      0.69209098	      0.97431185	      0.52717802	     18.07447683	      2.29235056	     -2.93133486	     15.01729917	      4.47363395	    -16.92174617	      0.00000000	     22.81013417	     -3.99714507	      0.33109247	     64.61677426	      6.33007594	    -35.00000000	      0.00000000	     -2.79055362	      2.55798894	      0.74011718	      0.01991179	     -0.00748147	     -0.00289113	      1.56220972	      7.78239998	     -1.60785306	     51.70242810	    104.22282101	      0.03128597	     -0.01027503	     -0.00974853	      9.25243020	      3.57000175	      0.18158964	     32.76211101	     99.63046342
      8.28333330	    -20.62513577	     -0.84231417	      8.28339851	      0.70233696	      0.97470556	      0.52794010	     16.31772576	      2.08484768	     -2.80262158	     13.85250861	      3.89902387	    -16.57704529	      0.00000000	     22.32128039	     -3.13744377	      0.66815671	     63.65499350	      6.31259728	    -35.00000000	      0.00000000	     -2.83686219	      2.38637776	      0.95341557	      0.02053563	     -0.00626923	     -0.00403350	      1.84278129	      8.08738332	     -1.64146678	     51.35587536	    104.37793925	      0.02941548	     -0.01181285	     -0.00985296	      9.07268525	      3.46545409	     -0.04719126	     33.09855133	     99.48125815
